<?xml version="1.0" encoding="utf-8"?>
<!-- Generator: Adobe Illustrator 26.0.2, SVG Export Plug-In . SVG Version: 6.00 Build 0)  -->
<svg version="1.1" id="Слой_1" xmlns="http://www.w3.org/2000/svg" xmlns:xlink="http://www.w3.org/1999/xlink" x="0px" y="0px"
	 viewBox="0 0 64 64" style="enable-background:new 0 0 64 64;" xml:space="preserve">
<path d="M24.6,9.8c-8.1,0-14.9,6.6-14.9,14.9s6.6,14.9,14.9,14.9c3,0,5.7-0.8,8.1-2.3l9.6,9.6c1.3,1.3,3.2,1.3,4.5,0
	c1.3-1.3,1.3-3.2,0-4.5l-9.6-9.6c1.5-2.3,2.3-5.1,2.3-8.1C39.4,16.4,32.8,9.8,24.6,9.8z M24.6,15.7c4.9,0,8.9,4,8.9,8.9
	s-4,8.9-8.9,8.9s-8.9-4-8.9-8.9S19.7,15.7,24.6,15.7z"/>
</svg>
