<?xml version="1.0" encoding="iso-8859-1"?>
<!-- Generator: Adobe Illustrator 25.4.1, SVG Export Plug-In . SVG Version: 6.00 Build 0)  -->
<svg version="1.1" id="Layer_1" xmlns="http://www.w3.org/2000/svg" xmlns:xlink="http://www.w3.org/1999/xlink" x="0px" y="0px"
	 viewBox="0 0 16 16" style="enable-background:new 0 0 16 16;" xml:space="preserve">
<path style="fill:#C74343;" d="M11.5,0H4.491c-2.481,0-4.5,2.019-4.5,4.5v7c0,2.481,2.019,4.5,4.5,4.5H11.5
	c2.481,0,4.5-2.019,4.5-4.5v-7C16,2.019,13.981,0,11.5,0z"/>
<path style="fill:#FFFFFF;" d="M12.815,5.897c-1.235,2.141-2.471,4.282-3.706,6.427c-0.229,0.4-0.563,0.637-1.02,0.673
	c-0.51,0.035-0.914-0.18-1.174-0.62c-0.782-1.341-1.556-2.69-2.33-4.036C4.116,7.523,3.641,6.706,3.17,5.884
	C2.696,5.057,3.232,4.05,4.182,4.002C4.683,3.976,5.07,4.209,5.325,4.644c0.347,0.593,0.69,1.196,1.037,1.794
	c0.251,0.431,0.492,0.866,0.747,1.288c0.369,0.62,0.914,0.967,1.64,1.011c1.024,0.062,1.978-0.681,2.101-1.767
	c0.009-0.079,0.013-0.163,0.018-0.202c-0.004-0.352-0.07-0.651-0.211-0.928c-0.382-0.765,0.026-1.622,0.857-1.807
	c0.677-0.149,1.38,0.347,1.468,1.033C13.026,5.36,12.965,5.637,12.815,5.897L12.815,5.897z"/>
</svg>